<?xml version="1.0" encoding="UTF-8" standalone="no"?>
<svg
   xmlns:dc="http://purl.org/dc/elements/1.1/"
   xmlns:cc="http://creativecommons.org/ns#"
   xmlns:rdf="http://www.w3.org/1999/02/22-rdf-syntax-ns#"
   xmlns:svg="http://www.w3.org/2000/svg"
   xmlns="http://www.w3.org/2000/svg"
   xmlns:sodipodi="http://sodipodi.sourceforge.net/DTD/sodipodi-0.dtd"
   xmlns:inkscape="http://www.inkscape.org/namespaces/inkscape"
   width="217"
   height="57"
   viewBox="0 0 217 57"
   version="1.1"
   id="svg62"
   sodipodi:docname="logo.svg"
   inkscape:version="1.0.1 (3bc2e813f5, 2020-09-07)">
  <metadata
     id="metadata68">
    <rdf:RDF>
      <cc:Work
         rdf:about="">
        <dc:format>image/svg+xml</dc:format>
        <dc:type
           rdf:resource="http://purl.org/dc/dcmitype/StillImage" />
        <dc:title></dc:title>
      </cc:Work>
    </rdf:RDF>
  </metadata>
  <defs
     id="defs66" />
  <sodipodi:namedview
     pagecolor="#ffffff"
     bordercolor="#666666"
     borderopacity="1"
     objecttolerance="10"
     gridtolerance="10"
     guidetolerance="10"
     inkscape:pageopacity="0"
     inkscape:pageshadow="2"
     inkscape:window-width="1661"
     inkscape:window-height="811"
     id="namedview64"
     showgrid="false"
     inkscape:zoom="3.9262673"
     inkscape:cx="108.35668"
     inkscape:cy="31.468631"
     inkscape:window-x="1989"
     inkscape:window-y="37"
     inkscape:window-maximized="0"
     inkscape:current-layer="g60" />
  <g
     transform="translate(22.5 -9)"
     id="g60">
    <g
       aria-label="山本ベーカリー"
       transform="translate(86.5 61)"
       id="text54"
       style="font-size:16px;font-family:YuMincho-Regular, 'Yu Mincho';fill:#f8145b">
      <path
         d="m -43.007812,-0.5625 h -9.953125 v 0.9296875 q 0,0.4453125 -0.65625,0.4453125 -0.429688,0 -0.429688,-0.3828125 l 0.07813,-6.125 Q -53.96875,-9 -54.0625,-9.8125 q 1.085938,0.125 1.40625,0.234375 0.257813,0.078125 0.257813,0.234375 0,0.203125 -0.5625,0.4453125 v 7.9375 h 4.351562 V -9.25 q 0,-2.757813 -0.09375,-3.5 1.125,0.117187 1.460938,0.234375 0.25,0.07813 0.25,0.226562 0,0.210938 -0.59375,0.460938 v 10.8671875 h 4.578125 V -6.546875 q 0,-2.609375 -0.07813,-3.25 1.101562,0.125 1.40625,0.2265625 0.257812,0.078125 0.257812,0.2265625 0,0.21875 -0.5625,0.4453125 V -5.84375 l 0.07813,6.2109375 q 0,0.4453125 -0.65625,0.4453125 -0.273437,0 -0.359375,-0.09375 -0.08594,-0.0859375 -0.08594,-0.3046875 z"
         id="path70" />
      <path
         d="m -32.710937,-9.84375 v -0.210938 q 0,-2.554687 -0.07813,-3.296875 1.039062,0.109375 1.375,0.21875 0.242187,0.08594 0.242187,0.21875 0,0.179688 -0.546875,0.445313 v 2.625 h 4.476563 q 0.695312,-0.867188 0.835937,-0.867188 0.125,0 0.929688,0.65625 0.398437,0.3437505 0.398437,0.4531255 0,0.15625 -0.226562,0.15625 h -6.21875 q 1.085937,2.3203125 2.75,3.984375 1.820312,1.8046875 4.257812,2.7109375 0.04687,0.015625 0.04687,0.0625 0,0.078125 -0.07813,0.09375 -0.28125,0.070312 -0.429687,0.21875 -0.148438,0.15625 -0.289063,0.5 -0.07813,0.2109375 -0.210937,0.2109375 -0.132813,0 -0.640625,-0.3203125 -2.023438,-1.3359375 -3.265625,-2.9140625 -1.421875,-1.828125 -2.414063,-4.3203125 0.04687,2.1484375 0.109375,6.4375 h 1.507813 q 0.625,-0.765625 0.75,-0.765625 0.125,0 0.84375,0.609375 0.335937,0.2734375 0.335937,0.4140625 0,0.140625 -0.203125,0.140625 H -31.6875 q 0.04687,3.15625 0.04687,3.171875 0,0.4609375 -0.6875,0.4609375 -0.460937,0 -0.460937,-0.3984375 0,-0.3671875 0.0625,-3.234375 h -2.140625 q -0.554688,0 -1.09375,0.09375 l -0.15625,-0.6015625 q 0.554687,0.109375 1.195312,0.109375 h 2.195313 l 0.09375,-5.546875 q -2.453125,4.40625 -6.679688,6.71875 -0.0078,0.00781 -0.02344,0.00781 -0.140625,0 -0.140625,-0.15625 0,-0.03125 0.02344,-0.039063 4.25,-3.078125 6.179688,-7.6484375 H -37.5625 q -0.601562,0 -1.179687,0.09375 l -0.140625,-0.6015625 q 0.609375,0.109375 1.320312,0.109375 z"
         id="path72" />
      <path
         d="m -12.90625,-10.992188 q 0.09375,0 0.257812,0.04687 0.59375,0.15625 1.140625,0.53125 0.71875,0.5000005 0.71875,1.023438 0,0.203125 -0.132812,0.328125 -0.101563,0.1015625 -0.234375,0.1015625 -0.265625,0 -0.53125,-0.4296875 -0.421875,-0.742188 -1.3125,-1.28125 -0.0625,-0.03906 -0.0625,-0.15625 0,-0.164063 0.15625,-0.164063 z M -14.242188,-10 q 0.109375,0 0.15625,0.015625 0.726563,0.2578125 1.1875,0.640625 0.6875,0.5546875 0.6875,1.0390625 0,0.4609375 -0.398437,0.4609375 -0.257813,0 -0.53125,-0.53125 -0.359375,-0.6875 -1.1875,-1.2890625 -0.09375,-0.070312 -0.09375,-0.15625 Q -14.421875,-10 -14.242188,-10 Z m -7.296874,4.28125 q 0.195312,0 0.492187,-0.2109375 0.164063,-0.1171875 1.226563,-0.9453125 0.703125,-0.5546875 1.179687,-0.90625 0.359375,-0.2734375 0.6875,-0.2734375 0.367188,0 0.976563,0.3515625 3.484374,2.078125 6.624999,3.5546875 0.34375,0.1484375 0.554688,0.3046875 0.2578125,0.21875 0.2578125,0.4765625 0,0.265625 -0.171875,0.4375 -0.1484375,0.140625 -0.3437505,0.140625 -0.40625,0 -0.859375,-0.2578125 -2.578125,-1.4765625 -5.968749,-3.7578125 -0.789063,-0.515625 -1.039063,-0.515625 -0.234375,0 -0.625,0.3515625 -0.609375,0.5703125 -1.507812,1.5703125 -0.257813,0.2578125 -0.414063,0.5 -0.1875,0.3046875 -0.523437,0.3046875 -0.460938,0 -1.109375,-0.59375 -0.429688,-0.375 -0.429688,-0.75 0,-0.1953125 0.125,-0.1953125 0.04687,0 0.226563,0.109375 0.4375,0.3046875 0.640625,0.3046875 z"
         id="path74" />
      <path
         d="m 6.046875,-5.890625 q 0,0.3671875 -0.546875,0.3671875 l -2.203125,-0.0625 q -2.875,0 -6.609375,0.3046875 -0.6484375,0.054687 -0.859375,0.2109375 -0.1796875,0.125 -0.515625,0.125 -0.4453125,0 -0.9921875,-0.8046875 Q -6.0625,-6.3046875 -6.0625,-6.65625 q 0,-0.2578125 0.125,-0.2578125 0.1328125,0 0.2890625,0.2109375 0.4921875,0.609375 1.0546875,0.609375 0.8046875,0 2.2109375,-0.09375 3.5546875,-0.2265625 5.7421875,-0.2578125 0.546875,0 0.828125,-0.1640625 0.2265625,-0.125 0.484375,-0.125 0.21875,0 0.609375,0.15625 0.765625,0.3359375 0.765625,0.6875 z"
         id="path76" />
      <path
         d="m 16.289062,-8.546875 q 2.234375,-0.2578125 2.789063,-0.3203125 0.335937,-0.03125 0.445312,-0.140625 Q 19.8125,-9.25 19.9375,-9.25 q 0.25,0 0.820312,0.59375 0.414063,0.4375 0.414063,0.6875 0,0.2109375 -0.257813,0.3984375 -0.15625,0.09375 -0.203125,0.3984375 -0.296875,1.6015625 -0.421875,2.1015625 -0.492187,2.0546875 -0.992187,3.21875 -0.609375,1.390625 -1.46875,1.390625 -0.328125,0 -0.429688,-0.46875 Q 17.34375,-1.15625 16.960937,-1.40625 16.25,-1.8359375 15.945313,-1.984375 q -0.164063,-0.070312 -0.164063,-0.21875 0,-0.1796875 0.164063,-0.1796875 0.03906,0 0.429687,0.09375 1.195312,0.375 1.546875,0.375 0.359375,0 0.5,-0.3203125 0.664062,-1.4921875 1.023437,-3.25 0.414063,-1.7734375 0.414063,-2.5625 0,-0.2265625 -0.179688,-0.2265625 -0.296875,0 -0.625,0.03125 -1.617187,0.1484375 -2.9375,0.3515625 -0.601562,2.3828125 -1.921874,4.3671875 -0.601563,0.9296875 -1.59375,1.84375 -0.84375,0.78125 -1.734375,1.328125 -0.25,0.140625 -0.398438,0.140625 -0.195312,0 -0.195312,-0.2265625 0,-0.1015625 0.226562,-0.2734375 Q 12.234375,-2.015625 13.460938,-3.84375 14.5625,-5.5 15.171875,-7.75 q -1.609375,0.25 -1.75,0.2734375 -0.84375,0.140625 -1.023437,0.2265625 -0.226563,0.109375 -0.367188,0.109375 -0.460937,0 -0.898437,-0.609375 -0.398438,-0.5546875 -0.398438,-0.890625 0,-0.2421875 0.15625,-0.2421875 0.07031,0 0.257813,0.1953125 0.492187,0.5390625 0.992187,0.5390625 0.359375,0 1.109375,-0.078125 0.335938,-0.03125 1.070313,-0.1171875 0.625,-0.070312 1.039062,-0.109375 0.335938,-1.757813 0.335938,-2.265625 0,-0.382813 -0.265625,-0.570313 -0.171875,-0.125 -0.546875,-0.21875 -0.164063,-0.03906 -0.164063,-0.140625 0,-0.132812 0.226563,-0.234375 0.1875,-0.08594 0.367187,-0.08594 0.453125,0 1.039062,0.367187 0.6875,0.4375 0.6875,0.78125 0,0.148438 -0.242187,0.351563 -0.117188,0.125 -0.171875,0.304687 -0.28125,1.2812505 -0.335938,1.617188 z"
         id="path78" />
      <path
         d="m 29.609375,-9.734375 q 0,-0.679688 -0.140625,-0.875 -0.1875,-0.28125 -0.625,-0.46875 -0.210938,-0.07813 -0.210938,-0.171875 0,-0.117188 0.164063,-0.21875 0.117187,-0.07031 0.21875,-0.07031 0.460937,0 1.125,0.429688 0.671875,0.445312 0.671875,0.734375 0,0.164062 -0.15625,0.320312 -0.140625,0.1406255 -0.164063,0.710938 -0.04687,1.4375 -0.04687,4.4609375 0,0.65625 -0.367187,0.65625 -0.265625,0 -0.476563,-0.3828125 -0.195312,-0.3515625 -0.195312,-0.78125 0,-0.2265625 0.0625,-0.421875 0.0625,-0.2265625 0.07813,-0.4765625 0.0625,-1.7421875 0.0625,-3.4453125 z M 33.804687,-10.75 q 0,-0.5625 -0.210937,-0.789063 -0.1875,-0.210937 -0.796875,-0.382812 -0.210938,-0.04687 -0.210938,-0.203125 0,-0.125 0.210938,-0.226563 0.179687,-0.07813 0.382812,-0.07813 0.421875,0 1.140625,0.320313 0.78125,0.34375 0.78125,0.734375 0,0.15625 -0.148437,0.320312 -0.15625,0.15625 -0.171875,0.796875 Q 34.71875,-6.9375 34.617187,-6.0625 34.398437,-3.9140625 33.5,-2.625 31.945312,-0.3984375 28.671875,0.578125 28.421875,0.625 28.367187,0.625 q -0.226562,0 -0.226562,-0.1953125 0,-0.15625 0.15625,-0.203125 1.507812,-0.5078125 2.84375,-1.5703125 1.171875,-0.9375 1.742187,-1.953125 0.679688,-1.1953125 0.835938,-3.1796875 0.08594,-1.140625 0.08594,-2.921875 z"
         id="path80" />
      <path
         d="m 54.046875,-5.890625 q 0,0.3671875 -0.546875,0.3671875 l -2.203125,-0.0625 q -2.875,0 -6.609375,0.3046875 -0.648438,0.054687 -0.859375,0.2109375 -0.179688,0.125 -0.515625,0.125 -0.445313,0 -0.992188,-0.8046875 -0.382812,-0.5546875 -0.382812,-0.90625 0,-0.2578125 0.125,-0.2578125 0.132812,0 0.289062,0.2109375 0.492188,0.609375 1.054688,0.609375 0.804687,0 2.210937,-0.09375 3.554688,-0.2265625 5.742188,-0.2578125 0.546875,0 0.828125,-0.1640625 0.226562,-0.125 0.484375,-0.125 0.21875,0 0.609375,0.15625 0.765625,0.3359375 0.765625,0.6875 z"
         id="path82" />
    </g>
    <g
       aria-label="YamamotoBakery"
       transform="translate(85.5 40)"
       id="text58"
       style="font-size:34px;font-family:GreatVibes-Regular, 'Great Vibes';fill:#f8145b">
      <path
         d="m -67.353998,0.986 c -0.272,-0.884 -0.476,-0.544 -0.408,-0.034 -0.68,3.774 -6.664,3.196 -9.996,3.4 2.516,-4.454 4.862,-12.206 6.052,-17.442 1.156,-5.066 -1.496,-2.992 -1.666,-2.176 -1.054,3.536 -4.522,12.036 -8.738,15.028 -2.652,1.904 -5.78,1.632 -4.896,-2.448 0.68,-3.094 3.026,-7.752 5.304,-11.628 3.06,-5.168 4.522,-11.39 -0.476,-13.634 -5.95,-2.686 -17.272,2.856 -21.284002,11.118 -4.148,8.5 2.278,14.042 7.684002,11.798 7.616,-3.128 9.962,-13.464 2.788,-11.526 -0.612,0.136 -1.088,0.714 0.068,0.476 5.916,-1.054 2.006,8.568 -2.72,10.268 -4.420002,1.598 -9.554002,-1.734 -6.052002,-10.132 3.162002,-7.514 14.178002,-14.416 19.652002,-10.914 2.618,1.666 0.646,8.058 -2.38,12.988 -1.87,3.06 -4.488,7.582 -4.964,10.982 -0.68,5.168 4.284,5.712 7.752,3.366 3.162,-2.142 5.61,-6.46 6.902,-9.248 -1.224,4.556 -2.89,8.806 -4.658,13.158 -4.93,0 -10.064,0.272 -14.688,2.176 -8.500002,3.502 -2.482,9.316 6.392,5.916 3.468,-1.326 7.14,-3.808 9.418,-7.242 3.434,-0.034 6.698,-0.068 8.466,-0.782 2.074,-0.884 2.72,-2.584 2.448,-3.468 z m -12.512,4.25 c -2.04,3.264 -5.304,5.406 -8.33,6.528 -5.44,2.006 -12.002002,0.034 -5.338,-3.774 4.046,-2.346 9.078,-2.754 13.668,-2.754 z"
         id="path85" />
      <path
         d="m -58.514011,-6.256 c 0.34,-0.68 -0.17,-0.884 -0.476,-0.272 -0.714,1.462 -2.958,5.78 -4.386,5.712 -0.442,0 -0.612,-0.646 -0.34,-2.04 0.442,-2.074 2.448,-5.644 3.162,-6.358 -0.476,0.102 -0.986,-0.102 -1.428,-0.136 -1.088,-0.068 -1.564,0.748 -2.312,2.176 -0.884,1.666 -1.836,3.332 -3.026,4.76 -1.598,1.904 -3.468,2.176 -3.128,-0.204 0.204,-1.292 1.122,-2.958 1.394,-3.434 1.224,-2.006 2.992,-4.012 4.522,-4.862 1.258,-0.68 2.516,-0.408 2.89,0.85 0.578,0.102 0.85,-0.476 0.374,-0.986 -1.938,-2.108 -5.848,-0.85 -7.888,1.564 -5.134,6.154 -2.55,12.104 1.36,8.364 0.986,-0.952 1.904,-2.312 2.448,-3.196 -1.02,3.57 0.578,4.454 1.7,4.386 2.04,-0.17 4.114,-4.25 5.134,-6.324 z"
         id="path87" />
      <path
         d="m -41.276062,-6.256 c 0.34,-0.68 -0.204,-0.918 -0.476,-0.306 -0.714,1.564 -2.89,5.882 -4.658,5.882 -0.442,0 -0.816,-0.306 -0.578,-1.7 0.476,-2.38 4.08,-8.772 4.08,-8.772 -1.122,-0.408 -4.658,1.734 -6.29,3.196 -1.02,0.918 -2.142,2.21 -2.822,3.06 0.816,-1.666 1.87,-3.332 2.482,-4.76 0.306,-0.68 0.102,-1.258 -0.51,-1.496 -1.156,-0.408 -3.332,1.734 -4.964,3.196 -1.054,0.918 -2.142,2.21 -2.822,3.06 1.224,-2.448 3.094,-5.848 4.114,-6.392 -0.476,0.102 -0.986,-0.102 -1.428,-0.136 -1.088,-0.068 -1.53,0.51 -2.414,2.142 -1.666,3.06 -2.992,6.222 -4.624,9.452 0.34,-0.204 0.646,-0.17 1.122,-0.204 0.748,0 1.054,-0.034 1.292,-0.544 1.938,-3.74 3.536,-5.576 4.692,-6.63 3.57,-3.332 2.482,-0.85 1.36,1.462 -0.578,1.258 -1.19,2.38 -1.428,3.876 -0.17,0.986 0.306,1.87 1.088,1.87 0.442,-2.04 3.332,-5.848 4.794,-7.208 2.618,-2.448 3.23,-1.53 2.414,-0.204 -0.952,1.53 -1.598,2.686 -1.87,3.57 -1.02,3.162 0.612,3.978 1.836,3.978 2.584,0 4.59,-4.318 5.61,-6.392 z"
         id="path89" />
      <path
         d="m -29.376063,-6.256 c 0.34,-0.68 -0.17,-0.884 -0.476,-0.272 -0.714,1.462 -2.958,5.78 -4.386,5.712 -0.442,0 -0.612,-0.646 -0.34,-2.04 0.442,-2.074 2.448,-5.644 3.162,-6.358 -0.476,0.102 -0.986,-0.102 -1.428,-0.136 -1.088,-0.068 -1.564,0.748 -2.312,2.176 -0.884,1.666 -1.836,3.332 -3.026,4.76 -1.598,1.904 -3.468,2.176 -3.128,-0.204 0.204,-1.292 1.122,-2.958 1.394,-3.434 1.224,-2.006 2.992,-4.012 4.522,-4.862 1.258,-0.68 2.516,-0.408 2.89,0.85 0.578,0.102 0.85,-0.476 0.374,-0.986 -1.938,-2.108 -5.848,-0.85 -7.888,1.564 -5.134,6.154 -2.55,12.104 1.36,8.364 0.986,-0.952 1.904,-2.312 2.448,-3.196 -1.02,3.57 0.578,4.454 1.7,4.386 2.04,-0.17 4.114,-4.25 5.134,-6.324 z"
         id="path91" />
      <path
         d="m -12.138115,-6.256 c 0.34,-0.68 -0.204,-0.918 -0.476,-0.306 -0.714,1.564 -2.89,5.882 -4.658,5.882 -0.442,0 -0.816,-0.306 -0.578,-1.7 0.476,-2.38 4.08,-8.772 4.08,-8.772 -1.122,-0.408 -4.658,1.734 -6.29,3.196 -1.02,0.918 -2.142,2.21 -2.822,3.06 0.816,-1.666 1.87,-3.332 2.482,-4.76 0.306,-0.68 0.102,-1.258 -0.51,-1.496 -1.156,-0.408 -3.332,1.734 -4.964,3.196 -1.054,0.918 -2.142,2.21 -2.822,3.06 1.224,-2.448 3.094,-5.848 4.114,-6.392 -0.476,0.102 -0.986,-0.102 -1.428,-0.136 -1.088,-0.068 -1.53,0.51 -2.414,2.142 -1.666,3.06 -2.992,6.222 -4.624,9.452 0.34,-0.204 0.646,-0.17 1.122,-0.204 0.748,0 1.054,-0.034 1.292,-0.544 1.938,-3.74 3.536,-5.576 4.692,-6.63 3.57,-3.332 2.482,-0.85 1.36,1.462 -0.578,1.258 -1.19,2.38 -1.428,3.876 -0.17,0.986 0.306,1.87 1.088,1.87 0.442,-2.04 3.332,-5.848 4.794,-7.208 2.618,-2.448 3.23,-1.53 2.414,-0.204 -0.952,1.53 -1.598,2.686 -1.87,3.57 -1.02,3.162 0.612,3.978 1.836,3.978 2.584,0 4.59,-4.318 5.61,-6.392 z"
         id="path93" />
      <path
         d="m -0.68011639,-6.392 c 0.238,-0.51 -0.34000001,-0.646 -0.51000001,-0.306 -0.816,1.632 -2.584,5.848 -4.76,5.848 -0.816,0 -1.326,-0.34 -1.598,-0.85 1.292,-1.224 2.346,-2.822 2.856,-4.012 1.292,-3.026 0.918,-6.154 -1.666,-6.188 -2.312,-0.068 -5.1339996,2.584 -6.4599996,5.712 -1.292,3.026 -0.918,6.12 1.666,6.188 0.986,0.034 2.0059996,-0.442 2.9579996,-1.156 0.442,0.51 1.156,0.884 2.176,0.884 2.856,0 4.76,-4.828 5.33800001,-6.12 z m -4.96400001,-4.386 c 1.224,0.374 1.054,2.788 -0.272,5.576 -0.306,0.646 -0.68,1.292 -1.054,1.836 0.034,-0.136 0.068,-0.238 0.068,-0.374 0,-0.544 -0.442,-1.02 -1.02,-1.02 -0.85,0 -1.156,0.68 -1.19,1.462 0,0.51 0.17,1.122 0.544,1.666 -0.816,0.68 -1.6659996,1.02 -2.3119996,0.85 -1.224,-0.374 -0.918,-2.754 0.408,-5.542 1.2579996,-2.686 3.3659996,-4.862 4.8279996,-4.454 z"
         id="path95" />
      <path
         d="m 7.1398525,-12.92 h -1.632 c 0.51,-0.952 0.986,-1.904 1.462,-2.924 2.516,-5.44 -1.156,-6.018 -3.502,-1.904 -0.85,1.462 -1.7,3.128 -2.48200002,4.828 H -1.0541475 c -0.374,0 -0.442,0.748 -0.068,0.748 h 1.76799998 c -1.088,2.652 -2.34599998,6.358 -2.65199998,8.67 -0.51,3.74 2.85599998,4.318 4.692,2.55 1.258,-1.258 1.836,-2.176 3.332,-5.304 0.34,-0.68 -0.17,-0.816 -0.442,-0.204 -0.918,1.836 -2.04,3.978 -3.604,5.134 -1.12200002,0.816 -2.68600002,0.51 -2.17600002,-1.768 0,0 0.476,-2.584 0.782,-3.468 2.00600002,-1.836 3.36600002,-3.638 4.52200002,-5.61 h 1.972 c 0.34,0 0.408,-0.748 0.068,-0.748 z m -0.68,-3.468 c -0.476,1.122 -1.054,2.312 -1.7,3.468 h -1.7 c 0.85,-1.938 1.598,-3.808 2.414,-4.964 2.108,-2.958 1.632,0.068 0.986,1.496 z m -2.142,4.216 c -0.986,1.632 -2.142,3.196 -3.43400002,4.522 0.47600002,-1.19 1.12200002,-2.856 1.83600002,-4.522 z"
         id="path97" />
      <path
         d="m 17.50981,-6.392 c 0.238,-0.51 -0.34,-0.646 -0.51,-0.306 -0.816,1.632 -2.584,5.848 -4.76,5.848 -0.816,0 -1.326,-0.34 -1.598,-0.85 1.292,-1.224 2.346,-2.822 2.856,-4.012 1.292,-3.026 0.918,-6.154 -1.666,-6.188 -2.3120002,-0.068 -5.1340002,2.584 -6.4600002,5.712 -1.292,3.026 -0.918,6.12 1.666,6.188 0.986,0.034 2.006,-0.442 2.958,-1.156 0.4420002,0.51 1.1560002,0.884 2.1760002,0.884 2.856,0 4.76,-4.828 5.338,-6.12 z m -4.964,-4.386 c 1.224,0.374 1.054,2.788 -0.272,5.576 -0.306,0.646 -0.68,1.292 -1.054,1.836 0.034,-0.136 0.068,-0.238 0.068,-0.374 0,-0.544 -0.442,-1.02 -1.02,-1.02 -0.8500002,0 -1.1560002,0.68 -1.1900002,1.462 0,0.51 0.17,1.122 0.544,1.666 -0.816,0.68 -1.666,1.02 -2.312,0.85 -1.224,-0.374 -0.918,-2.754 0.408,-5.542 1.258,-2.686 3.3660002,-4.862 4.8280002,-4.454 z"
         id="path99" />
      <path
         d="m 51.271779,-16.592 c 2.312,-3.944 -1.156,-6.97 -7.004,-8.466 0.068,-0.17 0.544,-0.612 0.986,-0.918 0.816,-0.51 0.748,-0.952 -0.34,-0.51 -0.578,0.204 -1.292,0.646 -1.87,1.156 -3.944,-0.85 -8.67,-0.986 -13.396,-0.306 -11.968,1.7 -15.198,11.56 -8.262,13.974 2.992,1.054 6.698,-0.85 7.208,-4.216 v -0.034 c 0,-0.748 -0.714,-0.476 -0.714,-0.272 0.17,0.986 -2.142,4.964 -6.154,3.706 -5.032,-1.564 -1.938,-9.724 7.48,-11.73 4.59,-0.986 9.248,-1.02 13.022,-0.374 l -1.938,2.21 c -5.814,6.46 -8.262,15.572 -12.784,19.924 -2.142,-1.054 -3.672,-2.04 -4.93,-2.516 -7.65,-2.686 -9.996,5.338 -3.06,6.188 3.094,0.408 6.052,-0.442 8.67,-2.38 2.108,0.952 4.726,1.802 9.044,2.346 6.12,0.748 14.654,-3.196 12.818,-9.418 -0.748,-2.55 -4.182,-4.114 -6.426,-4.828 2.55,-0.102 6.188,-1.054 7.65,-3.536 z m -4.216,-6.562 c 6.256,2.924 0.578,9.078 -3.638,9.146 -2.652,0 -4.93,-0.68 -4.93,0.476 0.34,0.748 3.672,1.19 6.324,2.482 6.596,3.162 1.258,12.138 -7.616,11.322 -3.502,-0.34 -6.154,-1.156 -8.262,-2.04 l 1.292,-1.224 c 4.522,-4.896 9.078,-14.96 13.634,-21.216 1.19,0.272 2.278,0.612 3.196,1.054 z m -20.298,21.352 c -1.802,1.36 -3.91,2.176 -6.392,2.074 -4.42,-0.238 -3.842,-6.154 1.36,-4.352 2.006,0.714 3.468,1.53 5.032,2.278 z"
         id="path101" />
      <path
         d="m 64.73573,-6.256 c 0.34,-0.68 -0.17,-0.884 -0.476,-0.272 -0.714,1.462 -2.958,5.78 -4.386,5.712 -0.442,0 -0.612,-0.646 -0.34,-2.04 0.442,-2.074 2.448,-5.644 3.162,-6.358 -0.476,0.102 -0.986,-0.102 -1.428,-0.136 -1.088,-0.068 -1.564,0.748 -2.312,2.176 -0.884,1.666 -1.836,3.332 -3.026,4.76 -1.598,1.904 -3.468,2.176 -3.128,-0.204 0.204,-1.292 1.122,-2.958 1.394,-3.434 1.224,-2.006 2.992,-4.012 4.522,-4.862 1.258,-0.68 2.516,-0.408 2.89,0.85 0.578,0.102 0.85,-0.476 0.374,-0.986 -1.938,-2.108 -5.848,-0.85 -7.888,1.564 -5.134,6.154 -2.55,12.104 1.36,8.364 0.986,-0.952 1.904,-2.312 2.448,-3.196 -1.02,3.57 0.578,4.454 1.7,4.386 2.04,-0.17 4.114,-4.25 5.134,-6.324 z"
         id="path103" />
      <path
         d="m 71.229678,-19.346 c -2.924,4.352 -7.412,14.518 -9.724,17.578 -0.204,0.306 0,0.68 0.272,0.442 0.68,-0.646 2.04,-3.094 3.604,-6.052 -1.02,2.346 -2.176,4.284 -2.788,6.63 -0.136,0.442 -0.204,0.748 0.272,0.748 h 2.142 c -0.578,-0.476 0.34,-4.148 0.952,-5.304 0.918,-1.292 1.904,-2.312 2.788,-3.094 3.91,-3.332 5.406,-0.952 3.264,0.782 -0.782,0.646 -1.938,1.088 -2.686,1.02 -0.748,0.068 -2.006,1.7 -1.598,3.91 0.34,1.768 1.394,2.754 2.618,2.89 1.972,0.204 4.08,-0.34 6.766,-6.528 0.238,-0.544 -0.17,-0.85 -0.442,-0.306 -0.952,1.972 -1.904,3.74 -2.754,4.658 -3.128,3.332 -5.304,-0.918 -4.012,-4.08 1.496,-0.136 2.414,-0.612 3.434,-1.326 2.584,-1.836 2.992,-5.644 -1.394,-4.012 -1.972,0.748 -4.114,2.992 -5.542,4.76 0.34,-1.02 0.782,-2.006 1.224,-2.89 2.278,-4.522 5.746,-10.03 7.48,-11.356 -0.476,0.102 -0.986,-0.102 -1.428,-0.136 h -0.17 c -0.748,-0.034 -1.462,0.476 -2.278,1.666 z"
         id="path105" />
      <path
         d="m 85.475643,-6.358 c 0.34,-0.714 -0.34,-0.646 -0.612,-0.034 -0.782,1.802 -2.618,5.814 -5.61,5.814 -2.244,0 -1.666,-3.434 -1.156,-4.658 0.918,0 3.128,-0.714 4.182,-1.496 2.176,-1.666 3.162,-3.978 1.87,-4.964 -1.496,-1.122 -4.08,0.17 -5.814,2.21 -1.496,1.768 -2.652,4.318 -2.618,6.358 0.034,2.142 1.564,3.264 3.264,3.264 3.774,0 5.236,-3.774 6.494,-6.494 z m -3.536,-0.952 c -1.224,1.02 -2.992,1.496 -3.604,1.496 0.306,-0.612 1.156,-2.108 2.04,-3.196 4.182,-5.066 4.352,-0.646 1.564,1.7 z"
         id="path107" />
      <path
         d="m 94.24758,-6.222 c 0.34,-0.68 -0.102,-0.918 -0.408,-0.34 -0.714,1.462 -2.822,5.712 -4.216,5.678 -2.04,-0.102 1.428,-6.324 1.938,-7.378 0.408,-0.85 0.952,-2.142 0.714,-2.618 -1.666,0.17 -3.434,0.204 -4.692,0.136 0.578,-0.408 1.666,-1.326 1.87,-2.278 0.476,-2.278 -1.734,-3.128 -2.074,-1.224 -0.68,3.808 -2.55,8.942 -5.236,12.478 -0.204,0.306 0,0.68 0.272,0.442 1.666,-1.598 3.298,-5.372 4.114,-7.514 l 0.408,-1.088 c 1.904,0.034 3.094,0.476 2.618,1.598 -0.374,0.85 -1.598,2.618 -2.108,4.012 -1.36,3.536 0.714,4.556 1.87,4.284 2.21,-0.544 3.944,-4.148 4.93,-6.188 z"
         id="path109" />
      <path
         d="m 107.81353,-6.188 c 0.34,-0.68 -0.17,-0.918 -0.476,-0.306 -0.34,0.646 -1.088,2.21 -2.142,3.74 -1.326,1.904 -3.4,2.924 -4.896,3.366 0.986,-2.686 1.87,-5.508 2.72,-7.786 0.85,-2.278 1.36,-3.638 2.652,-4.522 h -1.836 c -0.646,0 -1.054,0.17 -1.326,0.714 -1.292,2.686 -3.433999,6.664 -5.337999,8.874 -2.21,2.55 -3.638,1.19 -2.006,-2.346 0.952,-2.04 1.904,-4.046 3.06,-6.018 0.408,-0.714 0.952,-0.952 1.258,-1.224 h -2.074 c -0.646,0 -1.054,0.17 -1.326,0.714 -0.51,1.054 -1.224,2.448 -1.904,3.74 l -0.612,1.19 c -0.204,0.442 0.102,0.544 0.306,0.544 -0.612,1.224 -1.462,2.482 -1.156,3.944 0.272,1.292 1.462,1.53 2.142,1.53 2.618,0 4.828,-4.216 5.983999,-6.256 -0.544,1.768 -1.631999,5.406 -2.923999,7.65 -2.754,0.782 -5.984,1.36 -8.262,2.448 -1.326,0.612 -2.55,1.53 -3.196,2.788 -1.02,1.904 -0.68,4.148 2.72,4.148 5.032,0 8.398,-5.202 10.54,-9.044 4.895999,-1.768 5.779999,-3.196 8.091999,-7.888 z m -10.505999,8.636 -0.748,1.258 c -1.564,2.142 -5.168,6.358 -8.16,6.358 -2.924,0 -1.632,-4.012 1.836,-5.508 1.938,-0.85 4.862,-1.53 7.072,-2.108 z"
         id="path111" />
    </g>
  </g>
</svg>
