<svg xmlns="http://www.w3.org/2000/svg" xmlns:xlink="http://www.w3.org/1999/xlink" width="153.679" height="41.999" viewBox="0 0 153.679 41.999"><defs><filter id="a" x="0" y="0" width="153.679" height="41.999" filterUnits="userSpaceOnUse"><feOffset dy="3" input="SourceAlpha"/><feGaussianBlur stdDeviation="1.5" result="b"/><feFlood flood-opacity="0.161"/><feComposite operator="in" in2="b"/><feComposite in="SourceGraphic"/></filter></defs><g transform="translate(4.484 1)"><rect width="144" height="33" transform="translate(0)" fill="none"/><line x2="134" transform="translate(5.5 27.5)" fill="none" stroke="#1cb3a8" stroke-linecap="round" stroke-width="1"/><g transform="translate(0.016 0.5)"><g transform="matrix(1, 0, 0, 1, -4.5, -1.5)" filter="url(#a)"><path d="M-909.562-255s8.241.288,8.241,16.5c0,15.665-8.241,16.5-8.241,16.5Zm-128.2,33s-8.241-.233-8.241-16.5,8.241-16.5,8.241-16.5h128.2v33Z" transform="translate(1050.5 256.5)" fill="none"/></g><text transform="translate(5.679 20)" fill="#1cb3a8" font-size="20" font-family="CambriaMath, Cambria Math"><tspan x="0" y="0">News All</tspan></text><path d="M-1607.385-693H-1632v-2.5h21.154l8.077-7.5L-1592-693Z" transform="translate(1728.679 712.5)" fill="#1cb3a8"/></g></g></svg>