<?xml version="1.0" encoding="UTF-8" standalone="no"?>
<svg
   xmlns:dc="http://purl.org/dc/elements/1.1/"
   xmlns:cc="http://creativecommons.org/ns#"
   xmlns:rdf="http://www.w3.org/1999/02/22-rdf-syntax-ns#"
   xmlns:svg="http://www.w3.org/2000/svg"
   xmlns="http://www.w3.org/2000/svg"
   xmlns:sodipodi="http://sodipodi.sourceforge.net/DTD/sodipodi-0.dtd"
   xmlns:inkscape="http://www.inkscape.org/namespaces/inkscape"
   id="グループ_1"
   data-name="グループ 1"
   width="526"
   height="106"
   viewBox="0 0 526 106"
   version="1.1"
   sodipodi:docname="グループ 1.svg"
   inkscape:version="1.0.1 (3bc2e813f5, 2020-09-07)">
  <metadata
     id="metadata15">
    <rdf:RDF>
      <cc:Work
         rdf:about="">
        <dc:format>image/svg+xml</dc:format>
        <dc:type
           rdf:resource="http://purl.org/dc/dcmitype/StillImage" />
      </cc:Work>
    </rdf:RDF>
  </metadata>
  <defs
     id="defs13" />
  <sodipodi:namedview
     pagecolor="#ffffff"
     bordercolor="#666666"
     borderopacity="1"
     objecttolerance="10"
     gridtolerance="10"
     guidetolerance="10"
     inkscape:pageopacity="0"
     inkscape:pageshadow="2"
     inkscape:window-width="640"
     inkscape:window-height="480"
     id="namedview11"
     showgrid="false"
     inkscape:zoom="1.240912"
     inkscape:cx="190.58563"
     inkscape:cy="42.7435"
     inkscape:current-layer="一日のはじまりに_優雅な朝のひとときを_" />
  <g
     id="グループ_1462"
     data-name="グループ 1462"
     transform="translate(0)">
    <g
       aria-label="一日のはじまりに、　　　 優雅な朝のひとときを。"
       id="一日のはじまりに_優雅な朝のひとときを_"
       style="font-style:normal;font-variant:normal;font-weight:bold;font-stretch:normal;font-size:32px;font-family:YuMincho-Demibold, 'Yu Mincho';-inkscape-font-specification:'YuMincho-Demibold, Yu Mincho, Bold';font-variant-ligatures:normal;font-variant-caps:normal;font-variant-numeric:normal;font-variant-east-asian:normal;fill:#f8145b">
      <path
         d="m 30.515625,18.75 q 0,0.3125 -0.40625,0.3125 H 5.015625 q -1.234375,0 -3.09375,0.1875 L 1.5625,18.078125 q 1.796875,0.25 3.390625,0.25 H 24.4375 q 2.0625,-2.5625 2.46875,-2.5625 0.328125,0 2.484375,1.765625 1.125,0.90625 1.125,1.21875 z"
         style="font-style:normal;font-variant:normal;font-weight:bold;font-stretch:normal;font-size:32px;font-family:YuMincho-Demibold, 'Yu Mincho';-inkscape-font-specification:'YuMincho-Demibold, Yu Mincho, Bold';font-variant-ligatures:normal;font-variant-caps:normal;font-variant-numeric:normal;font-variant-east-asian:normal"
         id="path17" />
      <path
         d="M 54.53125,29.96875 H 41.3125 v 1.46875 q 0,1.28125 -1.921875,1.28125 -1.375,0 -1.375,-1.0625 0.1875,-6.515625 0.1875,-15.828125 0,-6.015625 -0.15625,-10.375 1.875,0.75 3.71875,1.828125 h 12.375 q 1.53125,-1.625 1.859375,-1.625 0.34375,0 1.890625,1.28125 0.765625,0.671875 0.765625,0.984375 0,0.390625 -0.953125,1.015625 v 3.65625 q 0,10.9375 0.1875,18.53125 0,1.3125 -1.984375,1.3125 -1.375,0 -1.375,-1.0625 z m 0,-0.734375 V 18.703125 H 41.3125 v 10.53125 z m 0,-11.265625 V 8.015625 H 41.3125 v 9.953125 z"
         style="font-style:normal;font-variant:normal;font-weight:bold;font-stretch:normal;font-size:32px;font-family:YuMincho-Demibold, 'Yu Mincho';-inkscape-font-specification:'YuMincho-Demibold, Yu Mincho, Bold';font-variant-ligatures:normal;font-variant-caps:normal;font-variant-numeric:normal;font-variant-east-asian:normal"
         id="path19" />
      <path
         d="m 79.296875,10.328125 q 1.1875,1.3125 1.1875,2.625 0,1.21875 -0.703125,3.390625 -0.75,2.421875 -2.015625,4.609375 -1.96875,3.671875 -3.5625,5.34375 -1.203125,1.3125 -2.65625,1.3125 -1.359375,0 -2.421875,-1.25 -1.765625,-1.953125 -1.765625,-5.828125 0,-2.5625 1.375,-4.859375 1.53125,-2.703125 4.328125,-4.484375 3.359375,-2.078125 7.734375,-2.078125 4.765625,0 7.9375,2.5 3.75,3.015625 3.75,8.125 0,3.96875 -2.9375,6.59375 -2.140625,1.890625 -4.75,2.84375 -3.078125,1.109375 -6.5625,1.21875 -0.703125,0 -0.703125,-0.328125 0,-0.265625 0.609375,-0.40625 Q 83.3125,28.515625 86.375,25.46875 88,23.78125 88.640625,22 89.25,20.34375 89.25,18.03125 q 0,-4.0625 -2.8125,-6.015625 -2.125,-1.5 -5.125,-1.734375 -0.328125,-0.01563 -0.78125,-0.01563 -0.75,0 -1.234375,0.0625 z m -1.0625,0.1875 q -3.25,0.46875 -5.53125,2.5625 -1.796875,1.59375 -2.71875,3.9375 -0.546875,1.359375 -0.546875,3.03125 0,2.15625 0.796875,3.453125 0.6875,1.0625 1.421875,1.0625 0.765625,0 2.203125,-2.046875 2.828125,-3.9375 4.296875,-7.84375 0.671875,-1.671875 0.671875,-2.71875 0,-1.015625 -0.59375,-1.4375 z"
         style="font-style:normal;font-variant:normal;font-weight:bold;font-stretch:normal;font-size:32px;font-family:YuMincho-Demibold, 'Yu Mincho';-inkscape-font-specification:'YuMincho-Demibold, Yu Mincho, Bold';font-variant-ligatures:normal;font-variant-caps:normal;font-variant-numeric:normal;font-variant-east-asian:normal"
         id="path21" />
      <path
         d="m 119.10938,25.203125 q 3.28125,1.3125 4.57812,2.671875 0.60938,0.65625 0.60938,1.4375 0,0.65625 -0.48438,1.078125 -0.35937,0.328125 -0.85937,0.328125 -0.57813,0 -1.15625,-0.578125 -1.75,-1.75 -2.78125,-2.375 -0.0312,1.6875 -1.5625,2.71875 -1.35938,0.90625 -3.39063,0.90625 -2.0625,0 -3.42187,-0.734375 -0.8125,-0.4375 -1.3125,-1.25 -0.45313,-0.75 -0.45313,-1.546875 0,-0.9375 0.59375,-1.765625 Q 109.90625,25.5 110.5,25.140625 111.8125,24.375 114,24.375 q 1.15625,0 2.70313,0.328125 l -0.125,-8.421875 q -2.14063,0.28125 -4.3125,0.28125 -1.25,0 -2.17188,-0.484375 -0.9375,-0.484375 -1.64062,-1.4375 -0.21875,-0.328125 -0.21875,-0.515625 0,-0.25 0.1875,-0.25 0.10937,0 0.60937,0.25 1.07813,0.578125 2.75,0.578125 1.73438,0 4.82813,-0.53125 -0.0469,-4.359375 -0.125,-5.0625 -0.0937,-0.953125 -1.01563,-1.0625 -0.26562,-0.03125 -0.67187,-0.03125 l -0.39063,-0.03125 q -0.25,0 -0.25,-0.25 0,-0.3125 0.79688,-0.796875 0.64062,-0.421875 1.3125,-0.421875 1.17187,0 2.23437,0.578125 1.46875,0.78125 1.46875,1.5625 0,0.453125 -0.28125,0.734375 -0.40625,0.453125 -0.51562,1.21875 -0.25,1.625 -0.28125,3.015625 0.375,-0.07813 1.17187,-0.328125 0.32813,-0.109375 0.67188,-0.40625 0.46875,-0.359375 1.25,-0.359375 1.07812,0 1.625,0.4375 Q 124,13.296875 124,13.75 q 0,0.84375 -0.95312,1.21875 -1.25,0.484375 -4.25,1.0625 0,4.25 0.3125,9.171875 z m -2.53125,1.4375 q -1.75,-0.796875 -3.28125,-0.796875 -1.57813,0 -2.28125,0.359375 Q 110,26.71875 110,27.640625 q 0,0.890625 0.82813,1.40625 0.6875,0.421875 2.40625,0.421875 1.57812,0 2.39062,-0.609375 0.6875,-0.59375 0.85938,-1.34375 0.0937,-0.4375 0.0937,-0.875 z m -10.5625,-6.59375 q 0,0.07813 -0.125,0.578125 -1.39063,4.640625 -1.65625,6.34375 -0.0625,0.453125 -0.0625,0.921875 v 0.453125 q 0,0.203125 0.0469,0.53125 0.0312,0.34375 0.0469,0.46875 0.125,0.671875 0.125,1.203125 0,0.453125 -0.35938,0.765625 -0.34375,0.328125 -0.85937,0.328125 -1.07813,0 -1.71875,-1.4375 -1.0625,-2.46875 -1.0625,-6.828125 0,-4.890625 1.46875,-10.9375 0.51562,-2.203125 0.51562,-2.890625 0,-1.125 -0.75,-2.234375 -0.25,-0.390625 -0.25,-0.515625 0,-0.1875 0.51563,-0.1875 0.79687,0 1.70312,0.890625 1.89063,1.90625 1.89063,3.5 0,0.59375 -0.48438,1.03125 -0.48437,0.40625 -1.07812,2.203125 -1.64063,4.546875 -1.64063,8.265625 0,1.609375 0.21875,2.59375 0.0781,0.28125 0.29688,0.28125 0.15625,0 0.25,-0.1875 1.25,-2.53125 2.29687,-5.03125 0.1875,-0.453125 0.42188,-0.421875 0.25,0.04687 0.25,0.3125 z"
         style="font-style:normal;font-variant:normal;font-weight:bold;font-stretch:normal;font-size:32px;font-family:YuMincho-Demibold, 'Yu Mincho';-inkscape-font-specification:'YuMincho-Demibold, Yu Mincho, Bold';font-variant-ligatures:normal;font-variant-caps:normal;font-variant-numeric:normal;font-variant-east-asian:normal"
         id="path23" />
      <path
         d="m 147.20312,9.65625 q 1.59375,0.296875 2.65625,1.125 1.1875,0.90625 1.1875,1.90625 0,0.46875 -0.29687,0.796875 -0.29688,0.328125 -0.76563,0.328125 -0.67187,0 -1.07812,-0.734375 -0.9375,-1.6875 -2.01563,-2.828125 -0.35937,-0.34375 -0.35937,-0.40625 0,-0.140625 0.15625,-0.203125 0.10937,-0.015625 0.26562,-0.015625 0.17188,0 0.25,0.03125 z m 2.5625,-2.109375 q 1.75,0.1875 3.03125,0.984375 1.15625,0.75 1.15625,1.640625 0,0.5625 -0.32812,0.90625 -0.28125,0.28125 -0.65625,0.28125 -0.76563,0 -1.1875,-0.703125 -0.89063,-1.5 -2.23438,-2.515625 -0.39062,-0.28125 -0.39062,-0.375 0,-0.15625 0.0937,-0.203125 0.10937,-0.046875 0.25,-0.046875 0.0937,0 0.26562,0.03125 z m -9.54687,3.140625 q -0.34375,0.5 -0.34375,0.53125 -0.21875,0.734375 -0.54688,5.640625 -0.375,5.046875 -0.375,8.28125 0,2.359375 0.73438,3.046875 0.84375,0.734375 3.07812,0.734375 3.21875,0 6.96875,-1.953125 3.34375,-1.703125 5.59375,-4.3125 0.35938,-0.421875 0.57813,-0.421875 0.3125,0 0.3125,0.3125 0,0.203125 -0.42188,0.90625 -2.10937,3.40625 -5.5625,5.6875 -1.98437,1.3125 -3.79687,1.890625 -2.15625,0.703125 -4.73438,0.703125 -2.65625,0 -4.0625,-1.78125 -1.25,-1.578125 -1.25,-4.203125 0,-0.07813 0,-0.25 0.0781,-2.953125 0.25,-8.4375 0.15625,-4.859375 0.21875,-7.03125 0.0312,-0.96875 -0.25,-1.40625 Q 136.34375,8.203125 135.64062,7.921875 134.65625,7.5625 134.65625,7.375 q 0,-0.296875 0.54687,-0.578125 0.625,-0.28125 1.46875,-0.28125 1.40625,0 3.07813,1.4375 0.92187,0.796875 0.92187,1.640625 0,0.484375 -0.45312,1.09375 z"
         style="font-style:normal;font-variant:normal;font-weight:bold;font-stretch:normal;font-size:32px;font-family:YuMincho-Demibold, 'Yu Mincho';-inkscape-font-specification:'YuMincho-Demibold, Yu Mincho, Bold';font-variant-ligatures:normal;font-variant-caps:normal;font-variant-numeric:normal;font-variant-east-asian:normal"
         id="path25" />
      <path
         d="m 170.65625,14.328125 q -1.07813,0.0625 -2.39063,0.0625 -2.96875,0 -4.23437,-2.5625 -0.15625,-0.3125 -0.15625,-0.421875 0,-0.28125 0.28125,-0.28125 0.10937,0 0.29687,0.1875 1.0625,1.15625 3.96875,1.15625 1.90625,0 6.5625,-0.734375 0,-2.046875 0,-3.140625 0,-1.3125 -0.29687,-1.59375 -0.29688,-0.265625 -0.89063,-0.390625 -0.34375,-0.078125 -0.75,-0.125 -0.1875,0 -0.1875,-0.21875 0,-0.21875 0.39063,-0.609375 0.53125,-0.546875 1.28125,-0.546875 1.125,0 2.46875,0.796875 1.375,0.8125 1.375,1.640625 0,0.4375 -0.45313,0.890625 Q 177.375,9 177.3125,9.65625 q -0.0156,0.265625 -0.0937,1 -0.0469,0.453125 -0.0625,0.75 1.51562,-0.234375 3.14062,-0.578125 1.21875,-0.265625 1.8125,-0.578125 0.53125,-0.3125 1.57813,-0.3125 0.9375,0 1.67187,0.578125 0.625,0.5 0.625,1.0625 0,0.734375 -0.48437,0.984375 -0.40625,0.203125 -1.625,0.328125 -4.25,0.375 -6.8125,0.734375 -0.0312,1.109375 -0.0312,2.34375 0,1.234375 0.0312,2.453125 1.79687,-0.296875 2.76562,-0.671875 0.32813,-0.140625 0.32813,-0.375 0,-0.171875 -0.20313,-0.65625 -0.0625,-0.203125 -0.70312,-1.21875 -0.0469,-0.09375 -0.0469,-0.171875 0,-0.140625 0.14063,-0.140625 0.10937,0 0.25,0.109375 0.85937,0.640625 1.75,1.171875 0.51562,0.296875 0.95312,0.296875 h 0.23438 q 1.5,0 1.5,1.15625 0,0.46875 -0.54688,0.8125 -0.3125,0.203125 -1.17187,0.53125 -2.45313,0.90625 -5.1875,1.296875 0.0156,1.015625 0.3125,4.96875 2.76562,0.640625 6.46875,2.8125 1.92187,1.140625 1.92187,2.53125 0,0.59375 -0.375,1.015625 -0.34375,0.390625 -0.84375,0.390625 -0.59375,0 -1.1875,-0.515625 -3.3125,-2.921875 -5.75,-3.875 0,0.28125 0,0.421875 0,4.34375 -5,4.34375 -2.5625,0 -4.0625,-1.09375 -1.53125,-1.125 -1.53125,-2.78125 0,-1.46875 1.59375,-2.5625 0.98438,-0.65625 3.04688,-0.953125 0.60937,-0.09375 1.59375,-0.09375 0.78125,0 1.82812,0.0625 0,-2.34375 -0.0937,-4.40625 -0.82812,0.0625 -2.59375,0.0625 -4.57812,0 -4.57812,-2.65625 0,-1.296875 1.21875,-2.65625 0.34375,-0.375 1.5625,-1.25 z m 1.3125,0.03125 q -1.03125,0.484375 -1.82813,1.34375 -0.89062,1.03125 -0.89062,1.765625 0,1.40625 2.5625,1.40625 1.39062,0 3.20312,-0.203125 0,-3.03125 -0.0312,-4.734375 -0.625,0.07813 -1.5625,0.21875 -1,0.140625 -1.45312,0.203125 z m 3.20312,12.796875 q -1.64062,-0.390625 -2.95312,-0.390625 -0.375,0 -0.71875,0.03125 -1.6875,0.15625 -2.46875,0.609375 -0.79688,0.53125 -0.79688,1.3125 0,0.9375 1.01563,1.4375 0.76562,0.421875 2.75,0.421875 1.85937,0 2.65625,-0.890625 0.51562,-0.59375 0.51562,-2.53125 z"
         style="font-style:normal;font-variant:normal;font-weight:bold;font-stretch:normal;font-size:32px;font-family:YuMincho-Demibold, 'Yu Mincho';-inkscape-font-specification:'YuMincho-Demibold, Yu Mincho, Bold';font-variant-ligatures:normal;font-variant-caps:normal;font-variant-numeric:normal;font-variant-east-asian:normal"
         id="path27" />
      <path
         d="m 203.875,19.15625 q 0.8125,-2.578125 1.82812,-5.21875 0.8125,-2.234375 1.75,-3.546875 1.07813,-1.46875 2.71875,-1.46875 2.21875,0 3.59375,2.265625 1.5625,2.609375 1.5625,6.625 0,5.359375 -2.20312,8.515625 -1.73438,2.5 -4.17188,3.96875 -2.3125,1.4375 -5.5,2.25 -0.5625,0.15625 -0.92187,0.15625 -0.42188,0 -0.42188,-0.328125 0,-0.171875 0.57813,-0.40625 5.15625,-2 7.57812,-5.828125 1.1875,-1.875 1.625,-3.953125 0.39063,-1.859375 0.39063,-4.78125 0,-3.5 -0.64063,-5.3125 -0.64062,-1.859375 -1.98437,-1.859375 -1.3125,0 -2.20313,1.65625 -0.9375,1.75 -1.95312,6.0625 -0.57813,2.40625 -0.60938,3.421875 0,0.171875 0,0.234375 l 0.17188,1.90625 q 0,1.1875 -1.125,1.1875 -0.70313,0 -1.29688,-0.765625 -0.51562,-0.625 -0.78125,-1.578125 -0.45312,-1.46875 -0.45312,-4.28125 0,-2.4375 0.78125,-6.984375 0.25,-1.59375 0.25,-2.75 0,-0.9375 -0.82813,-1.953125 -0.26562,-0.3125 -0.26562,-0.40625 0,-0.390625 0.70312,-0.390625 0.375,0 0.92188,0.390625 1.42187,1 2.10937,2.453125 0.39063,0.765625 0.39063,1.375 0,0.609375 -0.42188,1.03125 -0.28125,0.28125 -0.53125,0.953125 -1.15625,3.40625 -1.15625,5.5625 0,1.4375 0.0937,1.859375 0.0469,0.171875 0.17188,0.171875 0.17187,0 0.25,-0.234375 z"
         style="font-style:normal;font-variant:normal;font-weight:bold;font-stretch:normal;font-size:32px;font-family:YuMincho-Demibold, 'Yu Mincho';-inkscape-font-specification:'YuMincho-Demibold, Yu Mincho, Bold';font-variant-ligatures:normal;font-variant-caps:normal;font-variant-numeric:normal;font-variant-east-asian:normal"
         id="path29" />
      <path
         d="m 242.90625,12.859375 q -2.26563,-0.0625 -4.0625,0.765625 -0.5,0.25 -0.67188,0.25 -0.28125,0 -0.28125,-0.28125 0,-0.203125 0.39063,-0.484375 Q 240.23437,11.6875 242.26562,11 q 2.01563,-0.671875 4.125,-0.671875 2.125,0 3.10938,0.6875 0.70312,0.5 0.70312,1.1875 0,0.703125 -0.53125,0.96875 -0.4375,0.21875 -1.42187,0.21875 l -1.5,-0.09375 q -1.10938,0 -1.89063,0.21875 -1.5,0.421875 -3.75,2.28125 -0.23437,0.1875 -0.42187,0.1875 -0.21875,0 -0.21875,-0.21875 0,-0.15625 0.21875,-0.421875 0.28125,-0.328125 1,-1.125 0.75,-0.8125 1.21875,-1.359375 z m -4.51563,6.984375 q 0,0.03125 -0.0625,0.265625 -0.0625,0.25 -0.0937,0.4375 -0.26562,0.890625 -0.26562,1.6875 0,1.140625 0.39062,2.046875 1,2.375 5.46875,2.375 3.09375,0 4.17188,-0.28125 0.98437,-0.359375 1.3125,-0.359375 0.82812,0 1.85937,0.515625 0.85938,0.421875 0.85938,1.21875 0,0.90625 -0.98438,1.234375 -1.5,0.546875 -5.39062,0.546875 -4.375,0 -6.625,-1.828125 -1.98438,-1.59375 -1.98438,-4.34375 0,-2.046875 0.79688,-3.484375 0.20312,-0.359375 0.35937,-0.359375 0.1875,0 0.1875,0.328125 z m -3.45312,-0.234375 q -1.85938,5.6875 -2.04688,6.40625 -0.1875,0.765625 -0.1875,1.78125 0,0.125 0.0937,1.0625 0.0937,0.484375 0.0937,0.765625 0.0469,1.4375 -0.89062,1.4375 -0.73438,0 -1.125,-0.421875 -0.34375,-0.359375 -0.95313,-1.5625 -1.0625,-2.0625 -1.0625,-5.984375 0,-3.28125 1.375,-8.984375 0.64063,-2.71875 0.64063,-3.265625 0,-1.28125 -0.82813,-2.53125 -0.125,-0.1875 -0.125,-0.328125 0,-0.25 0.45313,-0.25 0.60937,0 1.53125,0.796875 0.79687,0.734375 1.46875,1.921875 0.54687,0.953125 0.54687,1.765625 0,0.703125 -0.45312,1.140625 -0.375,0.4375 -0.98438,1.765625 -1.64062,3.78125 -1.64062,6.84375 0,2.609375 0.35937,3.234375 0.0469,0.09375 0.125,0.09375 0.0781,0 0.125,-0.09375 0.42188,-0.796875 2.875,-5.890625 0.17188,-0.375 0.45313,-0.375 0.21875,0 0.21875,0.328125 0,0.140625 -0.0625,0.34375 z"
         style="font-style:normal;font-variant:normal;font-weight:bold;font-stretch:normal;font-size:32px;font-family:YuMincho-Demibold, 'Yu Mincho';-inkscape-font-specification:'YuMincho-Demibold, Yu Mincho, Bold';font-variant-ligatures:normal;font-variant-caps:normal;font-variant-numeric:normal;font-variant-east-asian:normal"
         id="path31" />
      <path
         d="m 257.875,26.359375 q -0.21875,-0.15625 -0.21875,-0.3125 0,-0.296875 0.28125,-0.296875 3.65625,0.8125 5.60937,2.203125 2.04688,1.4375 2.04688,3.234375 0,0.90625 -0.5625,1.453125 -0.51563,0.53125 -1.35938,0.53125 -1.125,0 -1.70312,-1.4375 Q 260.75,28.375 257.875,26.359375 Z"
         style="font-style:normal;font-variant:normal;font-weight:bold;font-stretch:normal;font-size:32px;font-family:YuMincho-Demibold, 'Yu Mincho';-inkscape-font-specification:'YuMincho-Demibold, Yu Mincho, Bold';font-variant-ligatures:normal;font-variant-caps:normal;font-variant-numeric:normal;font-variant-east-asian:normal"
         id="path33" />
      <path
         d="m 96,82 q 0,0 0,0 z"
         style="font-style:normal;font-variant:normal;font-weight:bold;font-stretch:normal;font-size:32px;font-family:YuMincho-Demibold, 'Yu Mincho';-inkscape-font-specification:'YuMincho-Demibold, Yu Mincho, Bold';font-variant-ligatures:normal;font-variant-caps:normal;font-variant-numeric:normal;font-variant-east-asian:normal"
         id="path35" />
      <path
         d="m 121.76563,77.296875 q -2.42188,2.328125 -6.5,3.890625 -0.0156,0.01563 -0.0469,0.01563 -0.25,0 -0.25,-0.25 0,-0.04687 0.0312,-0.07813 3.15625,-2 5.28125,-5.234375 0.6875,-1.078125 1.03125,-2.046875 -0.90625,-0.515625 -0.90625,-1.890625 l 0.0312,-1.53125 q 0,-0.625 -0.0781,-1.25 2.26562,0.25 2.84375,0.421875 0.53125,0.15625 0.53125,0.46875 0,0.453125 -0.85938,0.671875 V 71.3125 q 0,0.484375 0.125,0.609375 0.21875,0.265625 2.82813,0.265625 1.95312,0 2.46874,-0.15625 0.5625,-0.1875 0.92188,-0.765625 0.21875,-0.375 0.70312,-1.53125 0.0469,-0.109375 0.17188,-0.109375 0.1875,0 0.1875,0.125 v 1.0625 q 0,0.515625 0.34375,0.640625 0.875,0.25 0.875,0.984375 0,1.125 -1.9375,1.484375 -1.29688,0.21875 -3.96875,0.21875 -1.20312,0 -1.71875,-0.03125 0.71875,0.25 0.71875,0.5625 0,0.296875 -0.84375,0.484375 -0.10937,0.140625 -0.28125,0.34375 -0.20312,0.21875 -0.23437,0.265625 h 5.12499 q 1.15625,-1.25 1.5,-1.25 0.35938,0 1.84375,1.1875 0.76563,0.59375 0.76563,0.921875 0,0.328125 -0.28125,0.5 -0.26563,0.15625 -1.10938,0.4375 -1.375,1.5 -2.85937,2.65625 l 0.29687,0.09375 q 3.17188,0.84375 9.03125,1.078125 0.10938,0 0.10938,0.15625 0,0.1875 -0.14063,0.234375 -0.71875,0.25 -1.04687,0.796875 -0.28125,0.46875 -0.57813,1.65625 -0.125,0.359375 -0.42187,0.359375 -0.5,0 -1.59375,-0.28125 -3.39063,-0.65625 -6.25,-2.015625 -0.48437,-0.234375 -1.39062,-0.734375 -4.28125,2.546875 -11.75,3.15625 -0.15625,0 -0.15625,-0.25 0,-0.140625 0.0937,-0.171875 6.07812,-1.28125 10,-4.015625 -1.5,-1.265625 -2.65625,-2.984375 z M 122.5625,76.5 l -0.32812,0.359375 q 1.54687,1.578125 3.4375,2.453125 1.34375,-1.140625 2.71874,-2.8125 z m -11.98437,-8.734375 q -1.23438,1.6875 -2.96875,3.515625 -0.0156,0.03125 -0.0625,0.03125 -0.0937,0 -0.21875,-0.125 -0.10938,-0.09375 -0.10938,-0.171875 0,-0.03125 0.0156,-0.04687 3.20312,-5.21875 4.65625,-11.140625 0.59375,-2.4375 0.82812,-4.671875 4,0.859375 4,1.625 0,0.390625 -1,0.671875 -1.25,4.296875 -3.51562,7.90625 1.42187,0.25 1.71875,0.375 0.26562,0.125 0.26562,0.390625 0,0.359375 -0.82812,0.765625 V 83.4375 q 0,1.34375 -1.6875,1.34375 -0.79688,0 -1.0625,-0.296875 -0.25,-0.265625 -0.25,-0.921875 0.21875,-4.09375 0.21875,-8.40625 z M 132.53125,67.625 h 1.0625 q 1.125,-1.3125 1.46875,-1.3125 0.35937,0 1.82812,1.3125 0.73438,0.6875 0.73438,0.984375 0,0.4375 -0.35938,0.578125 -0.32812,0.125 -1.10937,0.125 -0.48438,0.04687 -0.75,0.265625 -0.46875,0.375 -1.78125,1.21875 1.84375,0.875 1.84375,2.171875 0,0.71875 -0.46875,1.203125 -0.40625,0.421875 -0.9375,0.421875 -0.53125,0 -0.75,-0.3125 -0.17188,-0.28125 -0.40625,-1.1875 -0.375,-1.4375 -1.76563,-2.8125 -0.0469,-0.04687 -0.0469,-0.125 0,-0.171875 0.17187,-0.171875 0.0156,0 0.0469,0 1.23437,0.34375 1.85937,0.609375 0.32813,-1.03125 0.60938,-2.234375 h -16.42187 q 0,1.828125 -0.76563,2.90625 -0.60937,0.84375 -1.375,0.84375 -0.5625,0 -0.92187,-0.4375 Q 114,71.296875 114,70.765625 114,69.84375 114.98438,69.21875 115.96875,68.5625 116.32813,68 q 0.35937,-0.59375 0.35937,-1.46875 0,-0.125 0.23438,-0.125 0.25,0 0.28125,0.125 0.125,0.8125 0.15625,1.09375 h 1.40625 v -5.359375 q 0,-1.796875 -0.125,-3.25 1.5,0.453125 2.96875,1 h 2.21875 q 0.15625,-0.8125 0.21875,-2.375 h -4.125 q -1.03125,0 -2.5625,0.1875 L 117,56.65625 q 1.57813,0.25 2.95313,0.25 h 11.74999 q 1.8125,-2.109375 2.20313,-2.109375 0.29687,0 2.04687,1.46875 0.85938,0.765625 0.85938,1.0625 0,0.3125 -0.40625,0.3125 h -9.34375 q -0.95312,1.421875 -1.98437,2.375 h 4.73437 q 1.03125,-1.15625 1.375,-1.15625 0.35937,0 1.5625,0.96875 0.60937,0.453125 0.60937,0.765625 0,0.390625 -0.82812,0.828125 z m -2.5,0 v -1.921875 h -8.64062 V 67.625 Z m 0,-2.65625 V 63.25 h -8.64062 v 1.71875 z m 0,-2.453125 V 60.75 h -8.64062 v 1.765625 z M 127.60938,70.375 q 0,0.515625 -0.39063,0.90625 -0.34375,0.34375 -0.76562,0.34375 -0.51563,0 -0.89063,-0.796875 Q 125,69.65625 124,68.90625 q -0.0781,-0.04687 -0.0781,-0.125 0,-0.125 0.14062,-0.125 3.54688,0.140625 3.54688,1.71875 z m -8.5625,-0.34375 q 0.29687,1.0625 0.29687,1.890625 0,1.328125 -0.60937,2.109375 -0.59375,0.734375 -1.59375,0.734375 -0.64063,0 -1.03125,-0.421875 -0.34375,-0.375 -0.34375,-0.890625 0,-0.890625 1.0625,-1.3125 1.07812,-0.34375 1.46875,-0.8125 0.32812,-0.421875 0.42187,-1.25 0.0312,-0.140625 0.17188,-0.140625 0.10937,0 0.15625,0.09375 z"
         style="font-style:normal;font-variant:normal;font-weight:bold;font-stretch:normal;font-size:32px;font-family:YuMincho-Demibold, 'Yu Mincho';-inkscape-font-specification:'YuMincho-Demibold, Yu Mincho, Bold';font-variant-ligatures:normal;font-variant-caps:normal;font-variant-numeric:normal;font-variant-east-asian:normal"
         id="path37" />
      <path
         d="m 157.34375,82.3125 v 1.21875 q 0,1.25 -1.625,1.25 -1.1875,0 -1.1875,-0.984375 L 154.6875,68.75 v -4.546875 q -1.21875,1.21875 -2.15625,1.90625 -0.0312,0.01563 -0.0781,0.01563 -0.26562,0 -0.26562,-0.21875 0,-0.03125 0.0156,-0.0625 2.125,-3.078125 3.21875,-6.46875 0.65625,-1.875 0.96875,-4.140625 2.60938,0.875 3.29688,1.21875 0.625,0.296875 0.625,0.609375 0,0.515625 -1.26563,0.671875 -0.9375,2.25 -2.6875,4.515625 h 4.4375 q 0.67188,-1.828125 1.21875,-4.359375 0.28125,-1.28125 0.39063,-2.296875 2.625,0.765625 3.26562,1.0625 0.5625,0.265625 0.5625,0.640625 0,0.296875 -0.26562,0.4375 -0.25,0.125 -0.9375,0.265625 -1.59375,2.46875 -3.10938,4.25 h 2.875 q 1.29688,-1.734375 1.67188,-1.734375 0.35937,0 1.92187,1.1875 0.79688,0.625 0.79688,0.953125 0,0.328125 -0.48438,0.328125 h -5.40625 v 5.21875 h 1.21875 q 1.04688,-1.6875 1.5,-1.6875 0.3125,0 1.70313,1.1875 0.70312,0.640625 0.70312,0.921875 0,0.3125 -0.42187,0.3125 h -4.70313 v 5.515625 h 1.09375 q 1.17188,-1.671875 1.59375,-1.671875 0.3125,0 1.67188,1.15625 0.70312,0.65625 0.70312,0.9375 0,0.3125 -0.42187,0.3125 h -4.64063 v 6.390625 h 2.07813 q 1.14062,-1.890625 1.59375,-1.890625 0.32812,0 1.79687,1.34375 Q 169.5,81.71875 169.5,82 q 0,0.3125 -0.40625,0.3125 z m 0,-14.109375 h 3.32812 v -5.21875 h -3.32812 z m 0,0.734375 v 5.515625 h 3.32812 V 68.9375 Z m 0,6.25 v 6.390625 h 3.32812 V 75.1875 Z m -8.76563,-3.328125 q -2.10937,3.140625 -4.26562,5.0625 -1.85938,1.671875 -4.5,3.109375 -0.0312,0.01563 -0.0625,0.01563 -0.23438,0 -0.23438,-0.203125 0,-0.03125 0.0312,-0.0625 4.96875,-4.75 7.67188,-11.25 h -5.04688 q -0.75,0 -1.85937,0.1875 l -0.34375,-1.1875 q 1.09375,0.265625 2.10937,0.265625 h 0.76563 V 58.375 q -0.6875,0.04687 -1.92188,0.1875 l -0.34375,-1.171875 q 1.28125,0.25 2.39063,0.25 h 6.92187 q 1.32813,-1.796875 1.75,-1.796875 0.3125,0 1.92188,1.25 0.82812,0.6875 0.82812,0.96875 0,0.3125 -0.42187,0.3125 h -2.78125 v 9.1875 q 0.73437,-1.25 1.1875,-1.25 0.29687,0 1.4375,1.0625 0.57812,0.515625 0.57812,0.828125 0,0.328125 -0.42187,0.328125 h -2.78125 v 7.015625 L 151.28125,81.5 q 0,1.15625 -0.57813,1.875 -0.76562,1.0625 -2.57812,1.0625 -0.39063,0 -0.5,-0.15625 -0.0937,-0.125 -0.14063,-0.578125 -0.0937,-0.875 -0.75,-1.34375 -0.65625,-0.46875 -2.375,-0.921875 -0.10937,-0.03125 -0.10937,-0.21875 0,-0.265625 0.14062,-0.265625 2.65625,0.21875 3.73438,0.21875 0.45312,0 0.45312,-0.484375 z m -0.14062,-4.0625 V 58.375 h -2.90625 v 9.421875 z"
         style="font-style:normal;font-variant:normal;font-weight:bold;font-stretch:normal;font-size:32px;font-family:YuMincho-Demibold, 'Yu Mincho';-inkscape-font-specification:'YuMincho-Demibold, Yu Mincho, Bold';font-variant-ligatures:normal;font-variant-caps:normal;font-variant-numeric:normal;font-variant-east-asian:normal"
         id="path39" />
      <path
         d="m 193.625,67.015625 q -1.29688,-0.828125 -3.15625,-0.9375 -0.23438,-0.01563 -0.48438,-0.01563 -0.54687,0 -1.03125,0.04687 -0.48437,0.04687 -0.60937,0.04687 -0.3125,0 -0.3125,-0.21875 0,-0.25 0.39062,-0.421875 1.3125,-0.640625 3.32813,-0.640625 3.09375,0 5.40625,1.40625 1.46875,0.890625 1.46875,2.078125 0,1.25 -1.125,1.25 -0.57813,0 -1.23438,-0.515625 -1.375,-1.109375 -2.5,-1.109375 -0.79687,0 -1.4375,0.421875 -1.1875,0.671875 -1.1875,2.234375 0,2.109375 1.07813,5.953125 6.25,2.109375 6.25,4.21875 0,1.3125 -1.25,1.40625 -0.0625,0 -0.0937,0 -0.82813,0 -1.76563,-0.890625 Q 193.75,79.84375 192.34375,79.09375 192.40625,81.546875 190.75,82.609375 189.42187,83.5 187.03125,83.5 q -2.1875,0 -3.64063,-1.21875 -1.28125,-1 -1.28125,-2.421875 0,-1.671875 1.34375,-2.65625 1.59375,-1.15625 3.84375,-1.15625 1.375,0 2.29688,0.15625 -0.21875,-2.96875 -0.21875,-4.765625 0,-3.453125 4.25,-4.421875 z m -3.85938,11.203125 q -1.59375,-0.546875 -2.89062,-0.546875 -1.98438,0 -2.75,0.515625 -0.79688,0.53125 -0.79688,1.34375 0,0.9375 0.79688,1.46875 0.875,0.515625 2.28125,0.515625 1.92187,0 2.6875,-0.765625 0.70312,-0.75 0.70312,-2.078125 0,-0.28125 -0.0312,-0.453125 z M 187.9375,61.046875 q 0.75,0.04687 1.23437,0.484375 0.35938,0.3125 0.35938,0.671875 0,1 -1.34375,1.5 -0.82813,0.28125 -4.73438,1.203125 -3.03125,7.09375 -5.15625,11.5625 -0.78125,1.609375 -1.28125,2.015625 -0.35937,0.25 -0.82812,0.25 -0.625,0 -0.98438,-0.421875 Q 174.75,77.875 174.75,77.296875 q 0,-0.5 1.0625,-2.109375 3.21875,-5.03125 5.28125,-9.734375 -2.3125,0.296875 -2.92188,0.296875 -1.375,0 -2.07812,-0.421875 -1.28125,-0.6875 -1.89063,-2.046875 -0.125,-0.296875 -0.125,-0.546875 0,-0.1875 0.21875,-0.1875 0.125,0 0.35938,0.1875 0.73437,0.59375 1.4375,0.78125 0.70312,0.15625 1.5625,0.15625 1.45312,0 4.32812,-0.609375 1.0625,-2.828125 1.0625,-4.03125 0,-0.609375 -0.375,-0.890625 -0.34375,-0.265625 -1.5625,-0.71875 -0.25,-0.09375 -0.25,-0.28125 0,-0.25 0.32813,-0.421875 0.59375,-0.3125 1.40625,-0.3125 0.75,0 1.78125,0.359375 0.84375,0.3125 1.42187,0.6875 0.70313,0.46875 0.70313,1.1875 0,0.515625 -0.42188,0.828125 -0.59375,0.46875 -1.59375,2.953125 1.14063,-0.375 2.10938,-0.96875 0.70312,-0.40625 1.34375,-0.40625 z"
         style="font-style:normal;font-variant:normal;font-weight:bold;font-stretch:normal;font-size:32px;font-family:YuMincho-Demibold, 'Yu Mincho';-inkscape-font-specification:'YuMincho-Demibold, Yu Mincho, Bold';font-variant-ligatures:normal;font-variant-caps:normal;font-variant-numeric:normal;font-variant-east-asian:normal"
         id="path41" />
      <path
         d="m 215.07812,73.328125 h -1.98437 v 4.21875 h 1.59375 q 1.35937,-1.65625 1.76562,-1.65625 0.3125,0 1.79688,1.140625 0.76562,0.625 0.76562,0.9375 0,0.3125 -0.42187,0.3125 h -5.5 q 0.0156,0.953125 0.0625,3.328125 0.0312,1.515625 0.0312,1.953125 0,0.6875 -0.45313,0.953125 Q 212.32812,84.75 211.4375,84.75 q -1.28125,0 -1.28125,-1.03125 L 210.25,78.796875 V 78.28125 h -4.32813 q -0.76562,0 -1.90625,0.1875 l -0.35937,-1.171875 q 1.1875,0.25 2.26562,0.25 H 210.25 v -4.21875 h -2.04688 v 0.1875 q 0,1.125 -1.67187,1.125 -1.20313,0 -1.20313,-1.09375 L 205.42187,66.5 q 0,-1.3125 -0.0625,-3.734375 1.70313,0.703125 3,1.46875 h 1.85938 V 60.4375 H 206.25 q -0.73438,0 -1.82813,0.1875 l -0.34375,-1.171875 q 1.14063,0.25 2.17188,0.25 h 3.96875 V 57.90625 q 0,-1.03125 -0.125,-2.8125 3.92187,0.34375 3.92187,0.953125 0,0.40625 -0.95312,0.734375 v 2.921875 h 2.20312 q 1.39063,-1.796875 1.79688,-1.796875 0.3125,0 1.89062,1.25 0.79688,0.65625 0.79688,0.96875 0,0.3125 -0.42188,0.3125 h -6.26562 v 3.796875 h 1.82812 q 1.15625,-1.28125 1.5,-1.28125 0.32813,0 1.59375,0.984375 0.64063,0.5625 0.64063,0.875 0,0.28125 -0.73438,0.859375 v 1.28125 l 0.0312,6.5 q 0,1.125 -1.70312,1.125 -1.14063,0 -1.14063,-0.890625 z m 0,-0.734375 v -3.5625 h -6.875 v 3.5625 z m 0,-4.296875 V 64.96875 h -6.875 v 3.328125 z m 7.84375,4.78125 q -0.375,2.484375 -0.875,3.96875 -0.79687,2.484375 -2.34375,4.390625 -1.23437,1.53125 -3.34375,3.1875 -0.0469,0.03125 -0.0937,0.03125 -0.28125,0 -0.28125,-0.203125 0,-0.01563 0.0156,-0.04687 2.82812,-3.84375 3.71875,-7.9375 0.82812,-3.90625 0.82812,-12.453125 0,-5.28125 -0.1875,-8.265625 1.85938,0.921875 3.39063,1.828125 h 4.73437 q 1.32813,-1.5 1.67188,-1.5 0.29687,0 1.76562,1.125 0.73438,0.59375 0.73438,0.921875 0,0.359375 -0.84375,0.953125 v 1.828125 l 0.0937,20.140625 q 0,1.203125 -0.3125,1.8125 -0.28125,0.53125 -0.96875,0.9375 -0.96875,0.609375 -2.375,0.609375 -0.45313,0 -0.59375,-0.21875 -0.0625,-0.109375 -0.20313,-0.640625 Q 227.07812,82.0625 224.5,81.375 q -0.10938,-0.03125 -0.10938,-0.21875 0,-0.171875 0.10938,-0.171875 2.51562,0.15625 3.85937,0.15625 0.375,0 0.48438,-0.125 0.0937,-0.09375 0.0937,-0.421875 v -7.515625 z m 6.01563,-0.734375 v -6.765625 h -5.54688 q -0.125,4.515625 -0.375,6.765625 z m 0,-7.5 V 58.3125 h -5.46875 v 1.5 q 0,1.703125 -0.0781,5.03125 z"
         style="font-style:normal;font-variant:normal;font-weight:bold;font-stretch:normal;font-size:32px;font-family:YuMincho-Demibold, 'Yu Mincho';-inkscape-font-specification:'YuMincho-Demibold, Yu Mincho, Bold';font-variant-ligatures:normal;font-variant-caps:normal;font-variant-numeric:normal;font-variant-east-asian:normal"
         id="path43" />
      <path
         d="m 249.95312,61.328125 q 1.1875,1.3125 1.1875,2.625 0,1.21875 -0.70312,3.390625 -0.75,2.421875 -2.01563,4.609375 -1.96875,3.671875 -3.5625,5.34375 -1.20312,1.3125 -2.65625,1.3125 -1.35937,0 -2.42187,-1.25 -1.76563,-1.953125 -1.76563,-5.828125 0,-2.5625 1.375,-4.859375 1.53125,-2.703125 4.32813,-4.484375 3.35937,-2.078125 7.73437,-2.078125 4.76563,0 7.9375,2.5 3.75,3.015625 3.75,8.125 0,3.96875 -2.9375,6.59375 -2.14062,1.890625 -4.75,2.84375 -3.07812,1.109375 -6.5625,1.21875 -0.70312,0 -0.70312,-0.328125 0,-0.265625 0.60937,-0.40625 5.17188,-1.140625 8.23438,-4.1875 1.625,-1.6875 2.26562,-3.46875 0.60938,-1.65625 0.60938,-3.96875 0,-4.0625 -2.8125,-6.015625 -2.125,-1.5 -5.125,-1.734375 -0.32813,-0.01563 -0.78125,-0.01563 -0.75,0 -1.23438,0.0625 z m -1.0625,0.1875 q -3.25,0.46875 -5.53125,2.5625 -1.79687,1.59375 -2.71875,3.9375 -0.54687,1.359375 -0.54687,3.03125 0,2.15625 0.79687,3.453125 0.6875,1.0625 1.42188,1.0625 0.76562,0 2.20312,-2.046875 2.82813,-3.9375 4.29688,-7.84375 0.67187,-1.671875 0.67187,-2.71875 0,-1.015625 -0.59375,-1.4375 z"
         style="font-style:normal;font-variant:normal;font-weight:bold;font-stretch:normal;font-size:32px;font-family:YuMincho-Demibold, 'Yu Mincho';-inkscape-font-specification:'YuMincho-Demibold, Yu Mincho, Bold';font-variant-ligatures:normal;font-variant-caps:normal;font-variant-numeric:normal;font-variant-east-asian:normal"
         id="path45" />
      <path
         d="m 276.21875,62.671875 q -0.875,0.09375 -2.01563,0.09375 -1.90625,0 -2.71875,-1.21875 -0.60937,-0.90625 -0.67187,-1.96875 0,-0.421875 0.25,-0.421875 0.23437,0 0.42187,0.3125 0.35938,0.640625 0.85938,0.84375 0.45312,0.1875 1.34375,0.1875 2.03125,0 4.39062,-0.9375 0.3125,-0.125 0.92188,-0.59375 0.45312,-0.328125 1,-0.328125 1.17187,0 2.07812,1.40625 0.15625,0.28125 0.15625,0.484375 0,0.546875 -0.73437,0.796875 -1.07813,0.375 -2.04688,1.34375 -2.15625,2.109375 -3.48437,4.28125 -2.23438,3.6875 -2.23438,6.8125 0,2.953125 1.4375,4.390625 0.9375,0.96875 2.07813,1.328125 0.9375,0.296875 2.35937,0.296875 6.84375,0 8.125,-9.65625 Q 288,68.109375 288,66.578125 q 0,-0.546875 -0.0469,-1.609375 -0.0312,-1.8125 -0.85937,-3.796875 -0.28125,-0.65625 -0.28125,-1.34375 0,-0.515625 0.51562,-0.828125 0.45313,-0.265625 1.10938,-0.265625 0.5,0 0.85937,0.3125 0.39063,0.328125 0.39063,0.90625 0,1.828125 0.39062,3.109375 0.59375,1.890625 2.23438,4.09375 1.0625,1.421875 2.90625,3.09375 1.0625,0.96875 1.0625,2.15625 0,0.78125 -0.51563,1.171875 -0.46875,0.390625 -0.89062,0.390625 -1.03125,0 -2.65625,-2.140625 -1.6875,-2.1875 -2.9375,-5.546875 h -0.20313 q 0.0781,1.125 0.0781,2.828125 0,4 -0.54688,6.109375 -0.95312,3.765625 -3.4375,5.796875 -2.26562,1.84375 -5.39062,1.84375 -3.89063,0 -5.85938,-2.5 -1.95312,-2.453125 -1.95312,-5.984375 0,-5.578125 4.25,-11.703125 z"
         style="font-style:normal;font-variant:normal;font-weight:bold;font-stretch:normal;font-size:32px;font-family:YuMincho-Demibold, 'Yu Mincho';-inkscape-font-specification:'YuMincho-Demibold, Yu Mincho, Bold';font-variant-ligatures:normal;font-variant-caps:normal;font-variant-numeric:normal;font-variant-east-asian:normal"
         id="path47" />
      <path
         d="m 312.32812,69.328125 q -1,-0.8125 -1.1875,-2.171875 -0.15625,-1.203125 -0.15625,-6.125 0,-1.34375 -0.125,-1.65625 -0.125,-0.5 -0.9375,-0.890625 -0.64062,-0.328125 -0.95312,-0.453125 -0.29688,-0.09375 -0.29688,-0.21875 0,-0.28125 0.42188,-0.515625 0.85937,-0.515625 1.71875,-0.515625 1.20312,0 2.79687,1.3125 0.82813,0.671875 0.82813,1.40625 0,0.328125 -0.39063,0.890625 -0.125,0.21875 -0.25,0.90625 -0.14062,0.890625 -0.1875,1.984375 -0.0625,2.015625 -0.0625,2.765625 0,0.8125 0.0625,1.296875 0.0781,0.765625 0.89063,0.765625 0.15625,0 2.79687,-1.125 1.0625,-0.453125 2.01563,-0.984375 0.28125,-0.171875 0.28125,-0.46875 0,-0.1875 -0.125,-0.375 -0.20313,-0.359375 -0.64063,-0.796875 -0.29687,-0.28125 -0.29687,-0.375 0,-0.359375 0.73437,-0.359375 0.42188,0 1.09375,0.359375 1.15625,0.609375 2.01563,1.59375 0.73437,0.921875 0.73437,1.59375 0,0.828125 -0.89062,0.96875 -0.32813,0.03125 -2.01563,0.40625 -3.85937,0.9375 -5.85937,1.734375 -3.85938,1.546875 -5.375,2.984375 -1.40625,1.328125 -1.40625,3.09375 0,3.203125 6.14062,3.203125 4.15625,0 5.5625,-0.578125 0.9375,-0.375 1.51563,-0.375 0.75,0 1.625,0.28125 1.375,0.453125 1.375,1.40625 0,0.65625 -0.3125,0.96875 -0.32813,0.34375 -1.15625,0.53125 -2.14063,0.515625 -6.46875,0.515625 -3.73438,0 -5.98438,-0.703125 -1.78125,-0.546875 -2.875,-1.796875 -1.125,-1.265625 -1.125,-2.96875 0,-2.5625 1.95313,-4.484375 1.42187,-1.421875 4.51562,-3.03125 z"
         style="font-style:normal;font-variant:normal;font-weight:bold;font-stretch:normal;font-size:32px;font-family:YuMincho-Demibold, 'Yu Mincho';-inkscape-font-specification:'YuMincho-Demibold, Yu Mincho, Bold';font-variant-ligatures:normal;font-variant-caps:normal;font-variant-numeric:normal;font-variant-east-asian:normal"
         id="path49" />
      <path
         d="m 344.32812,69.328125 q -1,-0.8125 -1.1875,-2.171875 -0.15625,-1.203125 -0.15625,-6.125 0,-1.34375 -0.125,-1.65625 -0.125,-0.5 -0.9375,-0.890625 -0.64062,-0.328125 -0.95312,-0.453125 -0.29688,-0.09375 -0.29688,-0.21875 0,-0.28125 0.42188,-0.515625 0.85937,-0.515625 1.71875,-0.515625 1.20312,0 2.79687,1.3125 0.82813,0.671875 0.82813,1.40625 0,0.328125 -0.39063,0.890625 -0.125,0.21875 -0.25,0.90625 -0.14062,0.890625 -0.1875,1.984375 -0.0625,2.015625 -0.0625,2.765625 0,0.8125 0.0625,1.296875 0.0781,0.765625 0.89063,0.765625 0.15625,0 2.79687,-1.125 1.0625,-0.453125 2.01563,-0.984375 0.28125,-0.171875 0.28125,-0.46875 0,-0.1875 -0.125,-0.375 -0.20313,-0.359375 -0.64063,-0.796875 -0.29687,-0.28125 -0.29687,-0.375 0,-0.359375 0.73437,-0.359375 0.42188,0 1.09375,0.359375 1.15625,0.609375 2.01563,1.59375 0.73437,0.921875 0.73437,1.59375 0,0.828125 -0.89062,0.96875 -0.32813,0.03125 -2.01563,0.40625 -3.85937,0.9375 -5.85937,1.734375 -3.85938,1.546875 -5.375,2.984375 -1.40625,1.328125 -1.40625,3.09375 0,3.203125 6.14062,3.203125 4.15625,0 5.5625,-0.578125 0.9375,-0.375 1.51563,-0.375 0.75,0 1.625,0.28125 1.375,0.453125 1.375,1.40625 0,0.65625 -0.3125,0.96875 -0.32813,0.34375 -1.15625,0.53125 -2.14063,0.515625 -6.46875,0.515625 -3.73438,0 -5.98438,-0.703125 -1.78125,-0.546875 -2.875,-1.796875 -1.125,-1.265625 -1.125,-2.96875 0,-2.5625 1.95313,-4.484375 1.42187,-1.421875 4.51562,-3.03125 z"
         style="font-style:normal;font-variant:normal;font-weight:bold;font-stretch:normal;font-size:32px;font-family:YuMincho-Demibold, 'Yu Mincho';-inkscape-font-specification:'YuMincho-Demibold, Yu Mincho, Bold';font-variant-ligatures:normal;font-variant-caps:normal;font-variant-numeric:normal;font-variant-east-asian:normal"
         id="path51" />
      <path
         d="m 373.125,65.015625 q -0.3125,0.03125 -0.625,0.03125 -1.4375,0 -2.60938,-0.484375 -1.78125,-0.75 -2.46875,-2.015625 -0.125,-0.25 -0.125,-0.359375 0,-0.25 0.21875,-0.25 0.21875,0 0.42188,0.15625 1.45312,1.03125 3.04687,1.03125 1.09375,0 2.96875,-0.359375 Q 375.75,62.40625 377.25,61.90625 l -0.4375,-1.546875 q -0.28125,-1 -0.45313,-1.625 -0.23437,-0.78125 -0.96875,-0.984375 -0.48437,-0.125 -0.92187,-0.171875 l -0.42188,-0.03125 q -0.21875,0 -0.21875,-0.21875 0,-0.15625 0.1875,-0.421875 0.71875,-0.921875 1.85938,-0.921875 1.04687,0 2.23437,0.453125 1.28125,0.484375 1.28125,1.34375 0,0.375 -0.1875,0.765625 -0.125,0.25 -0.125,0.953125 0,0.359375 0.1875,1.703125 0.9375,-0.296875 2.17188,-0.890625 0.32812,-0.171875 0.67187,-0.390625 0.21875,-0.125 0.48438,-0.359375 0.4375,-0.375 1.25,-0.375 2.01562,0 2.01562,0.953125 0,0.484375 -0.32812,0.78125 -0.29688,0.25 -1.14063,0.625 -2.25,1 -4.67187,1.828125 0.42187,1.640625 1.3125,3.75 1.82812,-0.71875 2.34375,-1.09375 0.21875,-0.15625 0.21875,-0.359375 0,-0.359375 -1.1875,-1.5 -0.23438,-0.21875 -0.23438,-0.390625 0,-0.1875 0.21875,-0.1875 0.0625,0 0.64063,0.296875 1.04687,0.578125 2.15625,0.578125 0.40625,0 0.79687,-0.0625 0.29688,-0.0625 0.57813,-0.0625 0.10937,0 0.28125,0.01563 0.39062,0.04687 0.67187,0.359375 0.26563,0.28125 0.29688,0.625 0,0.04687 0,0.07813 0,0.609375 -0.76563,1.09375 -1.5625,0.96875 -5.15625,2.390625 1.73438,3.21875 3,4.265625 1.28125,1.03125 1.28125,2.65625 0,0.6875 -0.42187,1.15625 -0.375,0.4375 -0.92188,0.4375 -0.48437,0 -1.3125,-0.703125 -0.79687,-0.703125 -1.84375,-1.09375 -2.6875,-0.890625 -4.76562,-0.890625 -2.35938,0 -3.71875,0.734375 -1.5625,0.84375 -1.5625,2.140625 0,2.046875 2.78125,2.578125 1.71875,0.328125 3.6875,0.328125 0.73437,0 1.29687,-0.07813 0.6875,-0.0625 0.96875,-0.0625 0.9375,0 1.82813,0.40625 0.95312,0.484375 0.95312,1.4375 0,0.59375 -0.60937,1.015625 Q 382,83.625 380.17187,83.625 q -3.84375,0 -6.375,-0.890625 -4.03125,-1.453125 -4.03125,-4.421875 0,-2.40625 2.5625,-3.8125 1.95313,-1.046875 5.04688,-1.046875 2.39062,0 4.9375,0.296875 -1.1875,-1.953125 -2.21875,-4.203125 -3.375,1.0625 -5.625,1.0625 -1.625,0 -2.70313,-0.75 -0.92187,-0.65625 -0.92187,-1.5625 0,-0.59375 0.29687,-1.140625 0.10938,-0.1875 0.60938,-0.875 0.5,-0.640625 1.375,-1.265625 z M 374.84375,64.75 q -0.89063,0.453125 -1.04688,0.609375 -0.79687,0.6875 -1.1875,1.375 -0.32812,0.59375 -0.32812,1.15625 0,0.828125 1.5,0.828125 2.3125,0 5.48437,-1.015625 -0.64062,-1.59375 -1.40625,-3.75 -1.34375,0.390625 -3.01562,0.796875 z"
         style="font-style:normal;font-variant:normal;font-weight:bold;font-stretch:normal;font-size:32px;font-family:YuMincho-Demibold, 'Yu Mincho';-inkscape-font-specification:'YuMincho-Demibold, Yu Mincho, Bold';font-variant-ligatures:normal;font-variant-caps:normal;font-variant-numeric:normal;font-variant-east-asian:normal"
         id="path53" />
      <path
         d="m 417.15625,64.75 q 0,-0.453125 1.21875,-0.453125 1,0 2.54687,0.796875 1.82813,0.9375 1.82813,2.1875 0,0.921875 -1.125,1.015625 -0.53125,0.04687 -1.78125,0.453125 -2.32813,0.796875 -4.73438,2.015625 -2.75,1.40625 -3.01562,1.5625 -0.0312,0.8125 -0.0312,2.4375 V 76.5 q 0,0.75 -0.10938,1.09375 -0.29687,0.828125 -1.17187,0.828125 -1.40625,0 -1.40625,-1.53125 0,-0.234375 0.0469,-1.203125 0.0312,-0.953125 0.0469,-1.875 -0.64063,0.359375 -1.65625,1.046875 -1.4375,0.984375 -2.03125,1.828125 -0.5625,0.796875 -0.5625,1.734375 0,2.265625 4.35937,2.265625 3,0 4.34375,-0.21875 0.8125,-0.140625 1.89063,-0.5625 0.625,-0.25 1.3125,-0.25 1.25,0 1.89062,0.546875 0.67188,0.546875 0.67188,1.1875 0,0.59375 -0.54688,0.96875 -1.14062,0.796875 -6.23437,0.796875 -3.01563,0 -4.48438,-0.234375 -1.28125,-0.203125 -2.40625,-0.71875 -2.20312,-1.03125 -2.20312,-3.59375 0,-2.1875 2.20312,-4.15625 1.28125,-1.15625 3.48438,-2.5 0.0312,-0.578125 0.0312,-1.5 0,-2.75 -1.5625,-2.75 -1.65625,0 -3.625,2.203125 -0.17188,0.203125 -2.26563,3.265625 -0.65625,0.921875 -1.4375,0.921875 -0.6875,0 -0.98437,-0.359375 -0.35938,-0.34375 -0.35938,-1.015625 0,-0.859375 0.51563,-1.3125 0.64062,-0.578125 1.10937,-1.0625 2.46875,-2.46875 4.67188,-6.328125 -1.46875,0.140625 -2.29688,0.203125 -0.15625,0.01563 -0.32812,0.01563 -1.20313,0 -2.15625,-0.703125 -0.92188,-0.671875 -1.35938,-1.890625 -0.15625,-0.390625 -0.15625,-0.734375 0,-0.28125 0.1875,-0.28125 0.1875,0 0.35938,0.28125 0.82812,1.3125 3.20312,1.3125 1.40625,0 3.70313,-0.515625 0.67187,-1.15625 1.0625,-2.625 0.15625,-0.625 0.15625,-0.859375 0,-0.25 -0.28125,-0.546875 Q 407.5,57.5 406.90625,57.234375 406.51562,57.0625 406.23437,57 q -0.1875,-0.03125 -0.1875,-0.15625 0,-0.125 0.21875,-0.34375 0.39063,-0.390625 1.1875,-0.390625 1.78125,0 3.23438,0.828125 0.76562,0.4375 0.76562,1.1875 0,0.484375 -0.45312,0.796875 -0.53125,0.40625 -0.85938,0.90625 -0.5,0.671875 -0.95312,1.40625 1.45312,-0.328125 2.5625,-1.1875 0.45312,-0.359375 1.15625,-0.359375 0.98437,0 1.5625,0.375 0.51562,0.328125 0.51562,0.8125 0,0.828125 -0.89062,1.125 -2.67188,0.953125 -6.125,1.625 -1.01563,1.515625 -1.125,1.703125 -0.79688,1.328125 -1.65625,2.5 2.01562,-1.34375 3.48437,-1.34375 1.92188,0 2.71875,1.25 0.54688,0.859375 0.57813,2.71875 4.28125,-2.625 5.4375,-3.375 1.15625,-0.75 1.15625,-0.953125 0,-0.34375 -0.34375,-0.640625 -0.39063,-0.34375 -0.9375,-0.484375 -0.125,-0.04687 -0.125,-0.25 z"
         style="font-style:normal;font-variant:normal;font-weight:bold;font-stretch:normal;font-size:32px;font-family:YuMincho-Demibold, 'Yu Mincho';-inkscape-font-specification:'YuMincho-Demibold, Yu Mincho, Bold';font-variant-ligatures:normal;font-variant-caps:normal;font-variant-numeric:normal;font-variant-east-asian:normal"
         id="path55" />
      <path
         d="m 432.35937,76.203125 q 1.78125,0 2.95313,1.296875 1.01562,1.140625 1.01562,2.671875 0,1.78125 -1.29687,2.96875 -1.14063,1.03125 -2.67188,1.03125 -1.78125,0 -2.96875,-1.328125 -1.03125,-1.140625 -1.03125,-2.671875 0,-1.765625 1.32813,-2.953125 1.125,-1.015625 2.67187,-1.015625 z m 0,1.0625 q -1.32812,0 -2.1875,0.953125 -0.75,0.8125 -0.75,1.953125 0,1.328125 0.95313,2.1875 0.82812,0.75 1.98437,0.75 1.3125,0 2.17188,-0.953125 0.73437,-0.828125 0.73437,-1.984375 0,-1.3125 -0.95312,-2.171875 -0.8125,-0.734375 -1.95313,-0.734375 z"
         style="font-style:normal;font-variant:normal;font-weight:bold;font-stretch:normal;font-size:32px;font-family:YuMincho-Demibold, 'Yu Mincho';-inkscape-font-specification:'YuMincho-Demibold, Yu Mincho, Bold';font-variant-ligatures:normal;font-variant-caps:normal;font-variant-numeric:normal;font-variant-east-asian:normal"
         id="path57" />
    </g>
  </g>
</svg>
